<svg width="16" height="17" viewBox="0 0 16 17" fill="none" xmlns="http://www.w3.org/2000/svg">
<path d="M14 5.66663H2C1.72667 5.66663 1.5 5.43996 1.5 5.16663C1.5 4.89329 1.72667 4.66663 2 4.66663H14C14.2733 4.66663 14.5 4.89329 14.5 5.16663C14.5 5.43996 14.2733 5.66663 14 5.66663Z" fill="#00092E"/>
<path d="M12 9H4C3.72667 9 3.5 8.77333 3.5 8.5C3.5 8.22667 3.72667 8 4 8H12C12.2733 8 12.5 8.22667 12.5 8.5C12.5 8.77333 12.2733 9 12 9Z" fill="#00092E"/>
<path d="M9.33366 12.3334H6.66699C6.39366 12.3334 6.16699 12.1067 6.16699 11.8334C6.16699 11.56 6.39366 11.3334 6.66699 11.3334H9.33366C9.60699 11.3334 9.83366 11.56 9.83366 11.8334C9.83366 12.1067 9.60699 12.3334 9.33366 12.3334Z" fill="#00092E"/>
</svg>
