<svg width="52" height="52" viewBox="0 0 52 52" fill="none" xmlns="http://www.w3.org/2000/svg">
<path d="M21.9973 12.037C22.1077 12.2616 22.1805 12.5022 22.2132 12.7494L22.8165 21.7193L23.1159 26.2277C23.119 26.6913 23.1917 27.152 23.3318 27.5948C23.6935 28.4539 24.5635 29 25.5101 28.9619L39.9342 28.0184C40.5588 28.0081 41.162 28.2417 41.611 28.6678C41.9852 29.0229 42.2268 29.4874 42.3029 29.9871L42.3284 30.2905C41.7316 38.5557 35.6612 45.4495 27.4131 47.229C19.165 49.0086 10.707 45.2494 6.63121 37.9923C5.45618 35.884 4.72225 33.5666 4.4725 31.1762C4.36817 30.4685 4.32223 29.7538 4.33513 29.0389C4.32225 20.1776 10.6325 12.5168 19.4657 10.6699C20.5289 10.5044 21.5711 11.0672 21.9973 12.037Z" fill="#97A5EB"/>
<path opacity="0.4" d="M27.8846 4.33515C37.7643 4.5865 46.0679 11.6909 47.6662 21.26L47.651 21.3306L47.6074 21.4333L47.6134 21.7152C47.5908 22.0886 47.4466 22.4479 47.1982 22.7381C46.9393 23.0404 46.5858 23.2463 46.1964 23.3262L45.9589 23.3588L29.3172 24.437C28.7636 24.4916 28.2125 24.3131 27.8008 23.9459C27.4578 23.64 27.2385 23.2269 27.1765 22.7818L26.0595 6.16434C26.0401 6.10815 26.0401 6.04724 26.0595 5.99105C26.0748 5.533 26.2764 5.10003 26.6193 4.78887C26.9623 4.47772 27.418 4.31431 27.8846 4.33515Z" fill="#FFCC91"/>
</svg>
