<svg width="124" height="52" viewBox="0 0 124 52" fill="none" xmlns="http://www.w3.org/2000/svg">
<path d="M22.5071 12.037C22.6174 12.2616 22.6903 12.5021 22.7229 12.7494L23.3262 21.7192L23.6257 26.2277C23.6288 26.6913 23.7015 27.152 23.8416 27.5948C24.2032 28.4539 25.0733 28.9999 26.0199 28.9618L40.444 28.0184C41.0686 28.0081 41.6718 28.2417 42.1208 28.6678C42.495 29.0229 42.7366 29.4874 42.8127 29.987L42.8382 30.2904C42.2413 38.5556 36.171 45.4494 27.9229 47.229C19.6748 49.0086 11.2168 45.2493 7.14098 37.9923C5.96595 35.884 5.23202 33.5666 4.98227 31.1761C4.87794 30.4685 4.832 29.7538 4.8449 29.0389C4.83201 20.1776 11.1423 12.5168 19.9755 10.6699C21.0386 10.5044 22.0808 11.0672 22.5071 12.037Z" fill="#97A5EB"/>
<path opacity="0.4" d="M28.3944 4.33512C38.2741 4.58647 46.5777 11.6909 48.176 21.26L48.1607 21.3306L48.1171 21.4333L48.1232 21.7151C48.1006 22.0886 47.9564 22.4478 47.7079 22.7381C47.4491 23.0404 47.0955 23.2462 46.7061 23.3261L46.4687 23.3587L29.827 24.437C29.2734 24.4916 28.7222 24.3131 28.3106 23.9459C27.9675 23.6399 27.7482 23.2269 27.6863 22.7818L26.5693 6.16431C26.5498 6.10812 26.5498 6.04721 26.5693 5.99102C26.5845 5.53297 26.7862 5.1 27.1291 4.78884C27.4721 4.47769 27.9277 4.31428 28.3944 4.33512Z" fill="#FFCC91"/>
<path d="M75.6302 21.96V36H72.2102V27.58L69.0702 36H66.3102L63.1502 27.56V36H59.7302V21.96H63.7702L67.7102 31.68L71.6102 21.96H75.6302ZM88.6096 30.24C88.6096 30.56 88.5896 30.8933 88.5496 31.24H80.8096C80.8629 31.9333 81.0829 32.4667 81.4696 32.84C81.8696 33.2 82.3563 33.38 82.9296 33.38C83.7829 33.38 84.3763 33.02 84.7096 32.3H88.3496C88.1629 33.0333 87.8229 33.6933 87.3296 34.28C86.8496 34.8667 86.2429 35.3267 85.5096 35.66C84.7763 35.9933 83.9563 36.16 83.0496 36.16C81.9563 36.16 80.9829 35.9267 80.1296 35.46C79.2763 34.9933 78.6096 34.3267 78.1296 33.46C77.6496 32.5933 77.4096 31.58 77.4096 30.42C77.4096 29.26 77.6429 28.2467 78.1096 27.38C78.5896 26.5133 79.2563 25.8467 80.1096 25.38C80.9629 24.9133 81.9429 24.68 83.0496 24.68C84.1296 24.68 85.0896 24.9067 85.9296 25.36C86.7696 25.8133 87.4229 26.46 87.8896 27.3C88.3696 28.14 88.6096 29.12 88.6096 30.24ZM85.1096 29.34C85.1096 28.7533 84.9096 28.2867 84.5096 27.94C84.1096 27.5933 83.6096 27.42 83.0096 27.42C82.4363 27.42 81.9496 27.5867 81.5496 27.92C81.1629 28.2533 80.9229 28.7267 80.8296 29.34H85.1096ZM96.6338 33.1V36H94.8938C93.6538 36 92.6872 35.7 91.9938 35.1C91.3005 34.4867 90.9538 33.4933 90.9538 32.12V27.68H89.5938V24.84H90.9538V22.12H94.3738V24.84H96.6138V27.68H94.3738V32.16C94.3738 32.4933 94.4538 32.7333 94.6138 32.88C94.7738 33.0267 95.0405 33.1 95.4138 33.1H96.6338ZM101.959 26.7C102.359 26.0867 102.859 25.6067 103.459 25.26C104.059 24.9 104.725 24.72 105.459 24.72V28.34H104.519C103.665 28.34 103.025 28.5267 102.599 28.9C102.172 29.26 101.959 29.9 101.959 30.82V36H98.5388V24.84H101.959V26.7ZM108.814 23.68C108.214 23.68 107.72 23.5067 107.334 23.16C106.96 22.8 106.774 22.36 106.774 21.84C106.774 21.3067 106.96 20.8667 107.334 20.52C107.72 20.16 108.214 19.98 108.814 19.98C109.4 19.98 109.88 20.16 110.254 20.52C110.64 20.8667 110.834 21.3067 110.834 21.84C110.834 22.36 110.64 22.8 110.254 23.16C109.88 23.5067 109.4 23.68 108.814 23.68ZM110.514 24.84V36H107.094V24.84H110.514ZM119.592 36L117.452 32.9L115.652 36H111.952L115.632 30.3L111.852 24.84H115.692L117.832 27.92L119.632 24.84H123.332L119.592 30.46L123.432 36H119.592Z" fill="#45464E"/>
</svg>
